<?xml version="1.0" standalone="no"?>
<!DOCTYPE svg PUBLIC "-//W3C//DTD SVG 20010904//EN"
 "http://www.w3.org/TR/2001/REC-SVG-20010904/DTD/svg10.dtd">
<svg version="1.0" xmlns="http://www.w3.org/2000/svg"
 width="2500.000000pt" height="2500.000000pt" viewBox="0 0 2500.000000 2500.000000"
 preserveAspectRatio="xMidYMid meet">

<g transform="translate(0.000000,2500.000000) scale(0.100000,-0.100000)"
fill="#000000" stroke="none">
<path d="M5988 16093 c-276 -48 -637 -84 -1028 -103 -383 -18 -970 -10 -1157
15 l-43 6 0 -105 0 -106 43 0 c64 0 169 -25 223 -53 136 -70 213 -195 267
-437 l21 -95 4 -3285 c2 -2418 0 -3315 -8 -3400 -7 -63 -22 -154 -34 -202
l-22 -87 63 -46 c35 -25 68 -45 73 -45 5 0 33 18 62 40 107 81 302 161 490
200 359 75 749 46 1098 -80 319 -116 360 -125 679 -141 604 -32 1035 37 1416
225 653 323 1019 869 1169 1741 66 390 92 895 66 1315 -51 823 -267 1384 -683
1776 -305 287 -689 421 -1147 400 -410 -19 -713 -108 -992 -292 -97 -65 -299
-268 -371 -373 l-57 -85 -2 1620 -3 1620 -127 -23z m1002 -3015 c263 -122 426
-546 490 -1268 30 -346 40 -1094 20 -1490 -62 -1192 -318 -1838 -771 -1945
-156 -36 -402 0 -567 84 l-42 22 3 2027 c3 2238 -3 2052 65 2195 87 184 291
347 492 392 102 23 242 15 310 -17z"/>
<path d="M17127 16093 c-430 -74 -960 -113 -1539 -113 -265 0 -535 11 -640 25
l-38 5 0 -105 0 -105 43 0 c60 0 192 -35 241 -64 124 -73 202 -215 248 -451
l22 -110 4 -2995 c2 -2149 0 -3030 -8 -3118 -31 -346 -128 -486 -372 -536 -42
-9 -100 -16 -128 -16 l-50 0 0 -106 0 -106 93 6 c617 40 2178 40 2735 0 l82
-6 0 105 0 104 -82 7 c-288 22 -399 127 -455 429 -16 86 -18 338 -23 3632 l-5
3540 -128 -22z"/>
<path d="M19455 16114 c-446 -45 -711 -190 -840 -459 -67 -140 -80 -202 -79
-395 0 -194 13 -257 81 -400 38 -79 59 -107 132 -180 70 -70 104 -95 187 -138
195 -99 372 -135 674 -136 294 0 469 33 655 123 223 110 360 276 416 506 31
126 31 324 0 450 -80 331 -340 541 -756 610 -88 15 -390 27 -470 19z"/>
<path d="M12370 13624 c-617 -45 -1093 -216 -1496 -539 -488 -392 -759 -947
-844 -1730 -6 -55 -14 -217 -17 -360 -24 -1062 219 -1827 727 -2281 372 -335
818 -509 1394 -546 515 -34 976 81 1326 329 109 78 362 325 464 453 166 209
342 521 431 764 54 147 55 143 -37 175 l-78 28 -69 -86 c-304 -381 -695 -581
-1133 -581 -261 0 -473 78 -675 249 -188 159 -310 363 -388 646 -72 262 -98
528 -93 950 l3 290 1293 3 1292 2 -5 83 c-2 45 -7 137 -10 205 -10 225 -42
435 -100 657 -59 228 -151 437 -269 610 -78 115 -244 287 -352 363 -220 157
-504 261 -824 302 -90 11 -446 21 -540 14z m264 -258 c119 -70 206 -248 274
-561 61 -280 89 -549 99 -952 l6 -273 -581 0 -582 0 0 49 c0 76 28 398 50 571
92 721 260 1106 520 1191 14 5 57 7 96 5 56 -2 82 -9 118 -30z"/>
<path d="M20405 13569 c-379 -66 -775 -97 -1335 -106 -370 -5 -710 4 -817 23
l-33 6 0 -104 0 -105 73 -6 c135 -12 259 -72 323 -158 63 -84 111 -210 141
-373 16 -83 18 -247 21 -1841 2 -1238 0 -1782 -8 -1860 -27 -271 -98 -410
-244 -479 -64 -30 -182 -56 -257 -56 l-49 0 0 -106 0 -106 93 6 c619 40 2119
40 2735 0 l92 -6 0 105 0 104 -89 6 c-218 16 -353 99 -411 255 -58 154 -54
-23 -57 2510 -2 1277 -7 2321 -11 2321 -4 -1 -79 -14 -167 -30z"/>
</g>
</svg>
