<?xml version="1.0" standalone="no"?>
<!DOCTYPE svg PUBLIC "-//W3C//DTD SVG 20010904//EN"
 "http://www.w3.org/TR/2001/REC-SVG-20010904/DTD/svg10.dtd">
<svg version="1.0" xmlns="http://www.w3.org/2000/svg"
 width="512.000000pt" height="512.000000pt" viewBox="0 0 512.000000 512.000000"
 preserveAspectRatio="xMidYMid meet">

<g transform="translate(0.000000,512.000000) scale(0.100000,-0.100000)"
fill="#000000" stroke="none">
<path d="M355 4349 c-203 -30 -355 -125 -355 -221 0 -80 76 -265 176 -428 77
-127 95 -171 129 -322 42 -182 83 -316 121 -392 124 -246 286 -294 692 -203
56 13 102 21 102 18 0 -3 -9 -20 -19 -37 -12 -20 -47 -45 -102 -74 -46 -24
-99 -54 -117 -68 -81 -61 -185 -241 -242 -417 -36 -112 -40 -172 -21 -310 7
-49 14 -109 17 -132 3 -25 21 -66 45 -103 25 -40 44 -85 53 -126 16 -73 32
-102 80 -139 27 -20 35 -35 41 -73 16 -107 43 -141 214 -271 163 -124 189
-139 261 -161 40 -12 88 -37 125 -65 88 -67 140 -76 303 -55 145 19 220 75
285 211 47 100 78 202 143 469 77 318 113 422 158 459 14 12 16 6 16 -60 2
-333 11 -497 33 -583 14 -56 31 -98 46 -114 l24 -26 21 27 c12 14 31 66 43
114 20 77 23 125 29 373 3 157 7 287 9 288 2 2 15 -14 29 -35 38 -56 70 -159
136 -428 93 -378 140 -507 221 -599 61 -69 97 -79 264 -71 77 4 150 11 161 16
12 4 50 33 84 63 49 44 77 60 129 76 73 22 98 37 262 161 171 130 198 164 214
271 6 37 14 53 40 72 45 35 71 81 80 141 4 31 19 69 39 100 52 80 57 92 67
178 5 45 13 113 18 152 6 42 6 88 0 118 -20 110 -153 359 -237 445 -30 31 -81
66 -141 97 -64 33 -99 58 -112 79 -10 17 -19 34 -19 37 0 3 46 -5 103 -18 149
-33 261 -46 352 -40 118 8 168 29 239 101 97 98 148 220 216 515 40 171 55
211 134 341 100 163 176 348 176 428 0 154 -324 261 -675 223 -498 -54 -951
-297 -1407 -755 -126 -127 -205 -226 -249 -316 -58 -118 -89 -146 -89 -80 0
20 -9 36 -31 53 l-32 25 32 107 c42 142 116 307 177 392 93 131 273 301 351
332 40 16 57 36 49 57 -6 15 -9 15 -34 -2 -97 -63 -330 -288 -391 -377 -51
-75 -116 -219 -163 -362 -24 -71 -43 -131 -44 -133 -1 -1 -13 2 -28 7 -16 7
-35 7 -50 2 -22 -9 -24 -6 -45 67 -26 89 -88 248 -130 330 -63 124 -180 253
-369 406 -92 75 -112 83 -112 47 0 -12 20 -28 63 -49 78 -39 233 -182 318
-295 76 -100 126 -205 185 -385 l45 -137 -35 -28 c-26 -21 -36 -37 -36 -57 0
-67 -34 -38 -105 90 -103 184 -216 314 -426 490 -307 257 -560 404 -859 498
-223 70 -488 98 -675 71z"/>
</g>
</svg>
