<?xml version="1.0" standalone="no"?>
<!DOCTYPE svg PUBLIC "-//W3C//DTD SVG 20010904//EN"
 "http://www.w3.org/TR/2001/REC-SVG-20010904/DTD/svg10.dtd">
<svg version="1.0" xmlns="http://www.w3.org/2000/svg"
 width="512.000000pt" height="512.000000pt" viewBox="0 0 512.000000 512.000000"
 preserveAspectRatio="xMidYMid meet">

<g transform="translate(0.000000,512.000000) scale(0.100000,-0.100000)"
fill="#000000" stroke="none">
<path d="M1296 4674 c-438 -87 -768 -419 -851 -857 -23 -119 -23 -2395 0
-2514 84 -441 417 -774 858 -858 119 -23 2395 -23 2515 0 440 84 773 417 857
858 23 119 23 2395 0 2514 -73 386 -349 703 -714 822 -159 52 -135 51 -1410
50 -959 -1 -1199 -3 -1255 -15z m2489 -773 c82 -37 125 -103 125 -191 0 -124
-85 -211 -206 -212 -184 -2 -282 211 -161 349 61 69 161 92 242 54z m-1115
-281 c172 -20 344 -82 487 -177 76 -50 194 -162 255 -243 64 -84 152 -263 178
-365 66 -257 42 -502 -74 -740 -63 -129 -125 -214 -227 -310 -317 -300 -784
-375 -1176 -190 -121 57 -192 105 -282 190 -102 96 -163 181 -227 310 -205
418 -118 908 218 1231 113 108 207 169 354 227 161 64 327 86 494 67z"/>
<path d="M2420 3184 c-111 -23 -224 -86 -311 -173 -251 -252 -252 -650 0 -901
253 -252 651 -253 901 -1 253 254 253 648 0 902 -155 156 -374 220 -590 173z"/>
</g>
</svg>
